# xmcd
#
# Track frame offsets:
#  150
#  14780
#  29523
#  53050
#  65352
#  79472
#  90933
#  101283
#  117968
#  136211
#  156113
#  166438
#  173745
#
# Disc length: 2488 seconds
#
# Revision: 0
# Processed by: cddbd v1.5.1PL2 Copyright (c) Steve Scherf et al.
# Submitted via: Collectorz.com_Music_Collector 6.11
#
DISCID=a209b60d
DTITLE=Eagle Ridin' Papas - Hokum
DYEAR=2006
DGENRE=Acoustic blues
TTITLE0=Eagle Ridin´ Papas
TTITLE1=Death Letter Blues
TTITLE2=County Farm Blues
TTITLE3=The Bartender`s Just Like A Mother
TTITLE4=Scandalous And A Shame
TTITLE5=Beedle Um Bum
TTITLE6=Oh Yes
TTITLE7=Your Feet´s Too Big
TTITLE8=I Got Mine
TTITLE9=The Sheik Of Araby
TTITLE10=Scoodle Doo Doo
TTITLE11=Stairway To Heaven
TTITLE12=Possum Up A Simmon Tree
EXTD=
EXTT0=
EXTT1=
EXTT2=
EXTT3=
EXTT4=
EXTT5=
EXTT6=
EXTT7=
EXTT8=
EXTT9=
EXTT10=
EXTT11=
EXTT12=
PLAYORDER=
